<svg width="19" height="19" viewBox="0 0 19 19" fill="none" xmlns="http://www.w3.org/2000/svg">
<g filter="url(#filter0_i_201_4723)">
<path fill-rule="evenodd" clip-rule="evenodd" d="M6.09839 1.42129C6.95576 1.38182 7.22912 1.37305 9.41312 1.37305C11.5971 1.37305 11.8705 1.38255 12.7271 1.42129C13.5838 1.46003 14.1685 1.59671 14.6801 1.79479C15.2159 1.99725 15.702 2.31374 16.104 2.72306C16.5133 3.12433 16.829 3.60967 17.0308 4.14616C17.2296 4.65781 17.3655 5.24254 17.405 6.09772C17.4445 6.95655 17.4532 7.22992 17.4532 9.41318C17.4532 11.5972 17.4437 11.8705 17.405 12.7279C17.3663 13.5831 17.2296 14.1678 17.0308 14.6795C16.829 15.216 16.5128 15.7022 16.104 16.104C15.702 16.5133 15.2159 16.8291 14.6801 17.0308C14.1685 17.2296 13.5838 17.3656 12.7286 17.4051C11.8705 17.4445 11.5971 17.4533 9.41312 17.4533C7.22912 17.4533 6.95576 17.4438 6.09839 17.4051C5.24321 17.3663 4.65848 17.2296 4.14683 17.0308C3.61028 16.8291 3.12414 16.5128 2.72227 16.104C2.31323 15.7025 1.99669 15.2166 1.79473 14.6802C1.59665 14.1685 1.4607 13.5838 1.42123 12.7286C1.38176 11.8698 1.37299 11.5964 1.37299 9.41318C1.37299 7.22919 1.38249 6.95582 1.42123 6.09918C1.45997 5.24254 1.59665 4.65781 1.79473 4.14616C1.99699 3.60972 2.31377 3.12383 2.723 2.72233C3.1243 2.31338 3.60995 1.99685 4.1461 1.79479C4.65774 1.59671 5.24248 1.46076 6.09766 1.42129H6.09839ZM12.6621 2.86851C11.8142 2.82977 11.5598 2.82173 9.41312 2.82173C7.2664 2.82173 7.01204 2.82977 6.16417 2.86851C5.37989 2.90433 4.9545 3.03516 4.6709 3.14553C4.29594 3.29171 4.02769 3.46494 3.74629 3.74635C3.47953 4.00586 3.27424 4.32179 3.14547 4.67096C3.0351 4.95456 2.90427 5.37996 2.86845 6.16423C2.82971 7.0121 2.82167 7.26646 2.82167 9.41318C2.82167 11.5599 2.82971 11.8143 2.86845 12.6621C2.90427 13.4464 3.0351 13.8718 3.14547 14.1554C3.27411 14.504 3.4795 14.8205 3.74629 15.08C4.00576 15.3468 4.32225 15.5522 4.6709 15.6808C4.9545 15.7912 5.37989 15.922 6.16417 15.9578C7.01204 15.9966 7.26567 16.0046 9.41312 16.0046C11.5606 16.0046 11.8142 15.9966 12.6621 15.9578C13.4463 15.922 13.8717 15.7912 14.1553 15.6808C14.5303 15.5346 14.7985 15.3614 15.0799 15.08C15.3467 14.8205 15.5521 14.504 15.6808 14.1554C15.7911 13.8718 15.922 13.4464 15.9578 12.6621C15.9965 11.8143 16.0046 11.5599 16.0046 9.41318C16.0046 7.26646 15.9965 7.0121 15.9578 6.16423C15.922 5.37996 15.7911 4.95456 15.6808 4.67096C15.5346 4.296 15.3614 4.02775 15.0799 3.74635C14.8204 3.47961 14.5045 3.27433 14.1553 3.14553C13.8717 3.03516 13.4463 2.90433 12.6621 2.86851ZM8.38617 11.8917C8.9597 12.1305 9.59832 12.1627 10.193 11.9829C10.7876 11.8031 11.3014 11.4224 11.6465 10.9059C11.9917 10.3894 12.1468 9.76904 12.0854 9.15085C12.024 8.53267 11.7499 7.95497 11.3099 7.51644C11.0294 7.23611 10.6902 7.02147 10.3168 6.88795C9.94337 6.75444 9.545 6.70538 9.15035 6.7443C8.7557 6.78323 8.37459 6.90917 8.03446 7.11306C7.69432 7.31696 7.40363 7.59373 7.1833 7.92345C6.96297 8.25318 6.81849 8.62765 6.76025 9.01991C6.70202 9.41218 6.73148 9.81248 6.84652 10.192C6.96156 10.5715 7.15931 10.9208 7.42554 11.2147C7.69177 11.5086 8.01985 11.7398 8.38617 11.8917ZM6.49089 6.49096C6.87465 6.1072 7.33023 5.8028 7.83162 5.59511C8.33302 5.38743 8.87041 5.28053 9.41312 5.28053C9.95582 5.28053 10.4932 5.38743 10.9946 5.59511C11.496 5.8028 11.9516 6.1072 12.3353 6.49096C12.7191 6.87471 13.0235 7.33029 13.2312 7.83168C13.4389 8.33308 13.5458 8.87047 13.5458 9.41318C13.5458 9.95588 13.4389 10.4933 13.2312 10.9947C13.0235 11.4961 12.7191 11.9516 12.3353 12.3354C11.5603 13.1104 10.5092 13.5458 9.41312 13.5458C8.31707 13.5458 7.26592 13.1104 6.49089 12.3354C5.71587 11.5604 5.28047 10.5092 5.28047 9.41318C5.28047 8.31713 5.71587 7.26598 6.49089 6.49096ZM14.4623 5.89599C14.5574 5.80628 14.6335 5.6984 14.6862 5.57875C14.7389 5.45909 14.767 5.33008 14.7689 5.19937C14.7708 5.06865 14.7464 4.93888 14.6973 4.81774C14.6482 4.6966 14.5752 4.58655 14.4828 4.49411C14.3903 4.40167 14.2803 4.32871 14.1591 4.27957C14.038 4.23042 13.9082 4.20608 13.7775 4.20798C13.6468 4.20989 13.5178 4.238 13.3981 4.29066C13.2785 4.34332 13.1706 4.41945 13.0809 4.51455C12.9064 4.69949 12.8109 4.94515 12.8146 5.19937C12.8183 5.45359 12.9209 5.69636 13.1007 5.87614C13.2805 6.05592 13.5233 6.15855 13.7775 6.16226C14.0317 6.16597 14.2774 6.07045 14.4623 5.89599Z" fill="black"/>
</g>
<defs>
<filter id="filter0_i_201_4723" x="0.64209" y="0.64209" width="17.5421" height="21.5421" filterUnits="userSpaceOnUse" color-interpolation-filters="sRGB">
<feFlood flood-opacity="0" result="BackgroundImageFix"/>
<feBlend mode="normal" in="SourceGraphic" in2="BackgroundImageFix" result="shape"/>
<feColorMatrix in="SourceAlpha" type="matrix" values="0 0 0 0 0 0 0 0 0 0 0 0 0 0 0 0 0 0 127 0" result="hardAlpha"/>
<feOffset dy="4"/>
<feGaussianBlur stdDeviation="7.5"/>
<feComposite in2="hardAlpha" operator="arithmetic" k2="-1" k3="1"/>
<feColorMatrix type="matrix" values="0 0 0 0 0 0 0 0 0 0 0 0 0 0 0 0 0 0 0.2 0"/>
<feBlend mode="normal" in2="shape" result="effect1_innerShadow_201_4723"/>
</filter>
</defs>
</svg>
