<svg width="19" height="18" viewBox="0 0 19 18" fill="none" xmlns="http://www.w3.org/2000/svg">
<g filter="url(#filter0_i_201_4717)">
<path d="M17.9233 3.77175C17.3129 4.04219 16.6573 4.22492 15.968 4.30752C16.6792 3.88197 17.2113 3.21221 17.465 2.4232C16.7968 2.82008 16.0655 3.09945 15.3029 3.24914C14.7901 2.70158 14.1108 2.33865 13.3706 2.2167C12.6304 2.09474 11.8706 2.22058 11.2092 2.57469C10.5478 2.92879 10.0218 3.49134 9.71293 4.175C9.40403 4.85866 9.32948 5.62518 9.50085 6.35556C8.14696 6.28758 6.82249 5.93568 5.6134 5.3227C4.4043 4.70971 3.33761 3.84935 2.48255 2.79743C2.19018 3.30177 2.02207 3.88651 2.02207 4.50925C2.02175 5.06986 2.1598 5.62189 2.42399 6.11635C2.68818 6.61081 3.07033 7.03242 3.53654 7.34376C2.99586 7.32656 2.46711 7.18046 1.9943 6.91764V6.96149C1.99424 7.74777 2.26622 8.50986 2.76409 9.11844C3.26196 9.72701 3.95504 10.1446 4.72575 10.3003C4.22418 10.4361 3.69832 10.4561 3.18789 10.3588C3.40534 11.0354 3.8289 11.627 4.39929 12.0508C4.96969 12.4747 5.65834 12.7096 6.36886 12.7226C5.16272 13.6695 3.67314 14.1831 2.13975 14.1808C1.86813 14.1809 1.59673 14.165 1.32697 14.1333C2.88344 15.134 4.6953 15.6652 6.54574 15.6631C12.8097 15.6631 16.2341 10.475 16.2341 5.97548C16.2341 5.82929 16.2304 5.68165 16.2239 5.53546C16.8899 5.05377 17.4649 4.45728 17.9218 3.77394L17.9233 3.77175Z" fill="black"/>
</g>
<defs>
<filter id="filter0_i_201_4717" x="0.64209" y="0.163208" width="17.5421" height="21.5421" filterUnits="userSpaceOnUse" color-interpolation-filters="sRGB">
<feFlood flood-opacity="0" result="BackgroundImageFix"/>
<feBlend mode="normal" in="SourceGraphic" in2="BackgroundImageFix" result="shape"/>
<feColorMatrix in="SourceAlpha" type="matrix" values="0 0 0 0 0 0 0 0 0 0 0 0 0 0 0 0 0 0 127 0" result="hardAlpha"/>
<feOffset dy="4"/>
<feGaussianBlur stdDeviation="7.5"/>
<feComposite in2="hardAlpha" operator="arithmetic" k2="-1" k3="1"/>
<feColorMatrix type="matrix" values="0 0 0 0 0 0 0 0 0 0 0 0 0 0 0 0 0 0 0.2 0"/>
<feBlend mode="normal" in2="shape" result="effect1_innerShadow_201_4717"/>
</filter>
</defs>
</svg>
