<svg width="65" height="67" viewBox="0 0 65 67" fill="none" xmlns="http://www.w3.org/2000/svg">
<path d="M55.2536 31.7052C54.1958 31.7052 53.4906 30.9733 53.4906 29.8755V26.216C53.4906 20.3608 51.375 14.8716 47.3202 10.6632C43.2654 6.45478 37.9765 4.25909 32.335 4.25909C20.6995 4.25909 11.1795 14.1397 11.1795 26.216V29.8755C11.1795 30.9733 10.4743 31.7052 9.41653 31.7052C8.35875 31.7052 7.65356 30.9733 7.65356 29.8755V26.216C7.65356 12.127 18.7602 0.599609 32.335 0.599609C38.858 0.599609 45.2047 3.34422 49.7884 8.10155C54.3721 12.8589 57.0165 19.446 57.0165 26.216V29.8755C57.0165 30.9733 56.3113 31.7052 55.2536 31.7052ZM34.9795 57.3216H29.6906C27.2225 57.3216 25.2832 59.3343 25.2832 61.896C25.2832 64.4576 27.2225 66.4703 29.6906 66.4703H34.9795C37.4476 66.4703 39.3869 64.4576 39.3869 61.896C39.3869 59.3343 37.4476 57.3216 34.9795 57.3216ZM34.9795 62.8108H29.6906C29.1617 62.8108 28.8091 62.4449 28.8091 61.896C28.8091 61.347 29.1617 60.9811 29.6906 60.9811H34.9795C35.5084 60.9811 35.861 61.347 35.861 61.896C35.861 62.4449 35.5084 62.8108 34.9795 62.8108Z" fill="#4A4A4A"/>
<path d="M42.9125 64.6403H37.6236C36.5658 64.6403 35.8606 63.9084 35.8606 62.8105C35.8606 61.7127 36.5658 60.9808 37.6236 60.9808H42.9125C48.7302 60.9808 53.4902 56.0405 53.4902 50.0024C53.4902 48.9045 54.1954 48.1726 55.2532 48.1726C56.311 48.1726 57.0162 48.9045 57.0162 50.0024C57.0162 58.0532 50.6695 64.6403 42.9125 64.6403ZM32.3347 53.6618C28.9851 53.6618 25.8117 52.0151 23.8725 49.2705C23.3436 48.5386 23.5199 47.2577 24.2251 46.7088C24.9302 46.1599 26.1643 46.3429 26.6932 47.0748C27.9273 48.9045 30.0428 50.0024 32.3347 50.0024C34.6265 50.0024 36.7421 48.9045 37.9762 47.0748C38.5051 46.3429 39.5628 46.1599 40.4443 46.7088C41.1495 47.2577 41.3258 48.3556 40.7969 49.2705C38.8576 52.0151 35.6843 53.6618 32.3347 53.6618Z" fill="#4A4A4A"/>
<path d="M12.9424 28.0459H7.65354C3.77502 28.0459 0.601685 31.3394 0.601685 35.3649V44.5136C0.601685 48.539 3.77502 51.8325 7.65354 51.8325H12.9424C13.8239 51.8325 14.7054 50.9177 14.7054 50.0028V29.8756C14.7054 28.9608 13.8239 28.0459 12.9424 28.0459ZM11.1795 48.1731H7.65354C5.71428 48.1731 4.12761 46.5263 4.12761 44.5136V35.3649C4.12761 33.3521 5.71428 31.7054 7.65354 31.7054H11.1795V48.1731ZM57.0165 28.0459H51.7276C50.8461 28.0459 49.9646 28.9608 49.9646 29.8756V50.0028C49.9646 50.9177 50.8461 51.8325 51.7276 51.8325H57.0165C60.895 51.8325 64.0684 48.539 64.0684 44.5136V35.3649C64.0684 31.3394 60.895 28.0459 57.0165 28.0459ZM60.5424 44.5136C60.5424 46.5263 58.9558 48.1731 57.0165 48.1731H53.4906V31.7054H57.0165C58.9558 31.7054 60.5424 33.3521 60.5424 35.3649V44.5136Z" fill="#4A4A4A"/>
</svg>
