<svg width="20" height="29" viewBox="0 0 20 29" fill="none" xmlns="http://www.w3.org/2000/svg">
<path d="M7.32943 28.9977H6.02261C5.90668 28.9977 5.81183 28.9023 5.81183 28.7858V8.39555C5.81183 8.27897 5.90668 8.18359 6.02261 8.18359H7.32943C7.44536 8.18359 7.54021 8.27897 7.54021 8.39555V28.7858C7.54021 28.9023 7.44747 28.9977 7.32943 28.9977Z" fill="#CEA100"/>
<path d="M0.982952 18.0459L0.464434 16.8399C0.418063 16.7318 0.466546 16.6067 0.574043 16.5622L19.1878 8.47396C19.2953 8.42733 19.4197 8.47608 19.4639 8.58418L19.9824 9.79021C20.0288 9.89831 19.9803 10.0234 19.8728 10.0679L1.25907 18.1561C1.15157 18.2028 1.02722 18.1519 0.982952 18.0459Z" fill="#CEA100"/>
<path d="M0.536083 25.7061L0.0175654 24.5C-0.0288057 24.392 0.0196773 24.2669 0.127174 24.2224L18.741 16.1341C18.8485 16.0875 18.9728 16.1362 19.0171 16.2443L19.5356 17.4504C19.582 17.5585 19.5335 17.6835 19.426 17.728L0.812202 25.8163C0.704705 25.8629 0.582455 25.8142 0.536083 25.7061Z" fill="#CEA100"/>
<path d="M13.7771 3.72196C14.7992 3.72196 15.6278 2.88877 15.6278 1.86098C15.6278 0.833189 14.7992 0 13.7771 0C12.7551 0 11.9265 0.833189 11.9265 1.86098C11.9265 2.88877 12.7551 3.72196 13.7771 3.72196Z" fill="white"/>
<path d="M12.913 5.92199V25.4029C12.913 25.5089 12.9973 25.5937 13.1027 25.5937H14.4516C14.557 25.5937 14.6413 25.5089 14.6413 25.4029V5.92199C14.6413 5.8584 14.5823 5.81601 14.5212 5.83085C14.283 5.89232 14.0343 5.92623 13.7771 5.92623C13.52 5.92623 13.2713 5.89232 13.0331 5.83085C12.972 5.81601 12.913 5.86052 12.913 5.92199Z" fill="#CEA100"/>
</svg>
