<svg width="20" height="20" viewBox="0 0 20 20" fill="none" xmlns="http://www.w3.org/2000/svg">
<g clip-path="url(#clip0_201_4737)">
<path d="M10 0C7.34784 0 4.8043 1.05357 2.92893 2.92893C1.05357 4.8043 0 7.34784 0 10C0 12.6522 1.05357 15.1957 2.92893 17.0711C4.8043 18.9464 7.34784 20 10 20C12.6522 20 15.1957 18.9464 17.0711 17.0711C18.9464 15.1957 20 12.6522 20 10C20 7.34784 18.9464 4.8043 17.0711 2.92893C15.1957 1.05357 12.6522 0 10 0Z" fill="white"/>
<path d="M7.96133 4.66675H12.1578C12.872 4.66675 13.4524 5.24711 13.4524 5.96139V14.4421C13.4524 15.1564 12.872 15.7368 12.1578 15.7368H7.96133C7.24704 15.7368 6.66669 15.1564 6.66669 14.4421V5.96139C6.66669 5.24711 7.24704 4.66675 7.96133 4.66675ZM7.96133 5.02389C7.44419 5.02389 7.02383 5.44353 7.02383 5.96139V13.2382H13.0953V5.96139C13.0953 5.44425 12.6749 5.02389 12.1578 5.02389H7.96133ZM9.3341 6.11066H10.7738V6.46781H9.3341V6.11066ZM7.02383 13.5953V14.4435C7.02383 14.9607 7.44419 15.381 7.96133 15.381H12.1578C12.6749 15.381 13.0953 14.9607 13.0953 14.4435V13.5953H7.02383Z" fill="black" stroke="black" stroke-width="0.35" stroke-linejoin="round"/>
</g>
<defs>
<clipPath id="clip0_201_4737">
<rect width="20" height="20" fill="white"/>
</clipPath>
</defs>
</svg>
